<?xml version="1.0" standalone="no"?><!DOCTYPE svg PUBLIC "-//W3C//DTD SVG 1.1//EN" "http://www.w3.org/Graphics/SVG/1.1/DTD/svg11.dtd"><svg t="1719442771882" class="icon" viewBox="0 0 1024 1024" version="1.1" xmlns="http://www.w3.org/2000/svg" p-id="32846" xmlns:xlink="http://www.w3.org/1999/xlink" width="200" height="200"><path d="M0 58.439396v907.121208c0 32.274273 26.162542 58.439396 58.439396 58.439396h907.121208c32.274273 0 58.439396-26.162542 58.439396-58.439396V58.439396C1023.99742 26.162542 997.834878 0 965.560604 0H58.439396C26.162542 0 0 26.162542 0 58.439396z m466.854716 220.760157h-160.700599c-16.139717 0-29.266136 13.126419-29.266135 29.266135v154.586287H142.803985v-154.586287c0-90.068699 73.281433-163.350133 163.350132-163.350133h160.703178l-0.002579 134.083998z m414.341299 436.334759c0 90.068699-73.281433 163.350133-163.350132 163.350133h-160.703178v-134.083998h160.703178c16.139717 0 29.266136-13.126419 29.266135-29.266135v-154.586287h134.083997v154.586287z" fill="#FF1A03" p-id="32847"></path></svg>