<?xml version="1.0" standalone="no"?><!DOCTYPE svg PUBLIC "-//W3C//DTD SVG 1.1//EN" "http://www.w3.org/Graphics/SVG/1.1/DTD/svg11.dtd"><svg t="1719441819949" class="icon" viewBox="0 0 1024 1024" version="1.1" xmlns="http://www.w3.org/2000/svg" p-id="7554" xmlns:xlink="http://www.w3.org/1999/xlink" width="200" height="200"><path d="M344 32h582.4v960H344z" fill="#FFFFFF" p-id="7555"></path><path d="M321.6 32h-160v75.2H232v32H161.6V264H232v32H161.6v123.2H232v32H161.6v123.2H232v32H161.6v123.2H232v32H161.6v123.2H232v32H161.6V992H344V32z" fill="#F2385A" p-id="7556"></path><path d="M129.6 0v107.2h-64v32h64v123.2h-64v32h64v123.2h-64v32h64v123.2h-64v32h64V728h-64v32h64v123.2h-64v32h64V1024h828.8V0H129.6z m796.8 992H161.6v-75.2H232v-32H161.6v-123.2H232v-32H161.6v-123.2H232v-32H161.6v-123.2H232v-32H161.6V296H232v-32H161.6V139.2H232v-32H161.6V32h764.8v960z" fill="" p-id="7557"></path></svg>