<?xml version="1.0" standalone="no"?><!DOCTYPE svg PUBLIC "-//W3C//DTD SVG 1.1//EN" "http://www.w3.org/Graphics/SVG/1.1/DTD/svg11.dtd"><svg t="1719545002339" class="icon" viewBox="0 0 1024 1024" version="1.1" xmlns="http://www.w3.org/2000/svg" p-id="6217" xmlns:xlink="http://www.w3.org/1999/xlink" width="200" height="200"><path d="M889.362963 259.792593c-11.377778-64.474074-60.681481-113.777778-125.155556-125.155556C680.77037 121.362963 595.437037 113.777778 512 113.777778s-168.77037 7.585185-252.207407 20.859259c-64.474074 11.377778-113.777778 60.681481-125.155556 125.155556C121.362963 343.22963 113.777778 428.562963 113.777778 512s7.585185 168.77037 20.859259 252.207407c11.377778 64.474074 60.681481 113.777778 125.155556 125.155556 83.437037 13.274074 166.874074 20.859259 252.207407 20.859259 83.437037 0 168.77037-7.585185 254.103704-20.859259 64.474074-11.377778 113.777778-60.681481 125.155555-125.155556 11.377778-83.437037 18.962963-166.874074 18.962963-252.207407 0-83.437037-7.585185-166.874074-20.859259-252.207407z m-551.822222 30.34074c34.133333 24.651852 60.681481 51.2 83.437037 75.851852l-24.651852 24.651852c-20.859259-24.651852-49.303704-49.303704-83.437037-75.851852l24.651852-24.651852z m15.17037 422.874074l-13.274074-30.34074c7.585185-7.585185 11.377778-15.17037 11.377778-22.755556V468.385185h-70.162963v-34.133333h102.4V644.740741c15.17037-13.274074 30.340741-30.340741 47.407407-49.303704l9.481482 36.02963c-26.548148 30.340741-56.888889 56.888889-87.22963 81.54074z m365.985185-62.577777h-123.259259v83.437037h-34.133333v-83.437037h-113.777778v-34.133334h113.777778v-54.992592h-92.918519v-32.237037h92.918519v-45.511111h34.133333v45.511111h98.607407v32.237037h-98.607407v54.992592h123.259259v34.133334z m-3.792592-163.081482c-54.992593-7.585185-100.503704-20.859259-136.533334-41.718518-37.925926 18.962963-83.437037 36.02963-138.429629 47.407407l-17.066667-28.444444c49.303704-11.377778 91.022222-24.651852 125.155556-39.822223-28.444444-22.755556-49.303704-53.096296-62.577778-87.229629H455.111111v-30.340741h233.244445v28.444444c-15.17037 34.133333-39.822222 64.474074-77.748149 91.022223 32.237037 15.17037 70.162963 24.651852 115.674074 30.34074l-11.377777 30.340741z" fill="#1296db" p-id="6218"></path><path d="M650.42963 337.540741h-132.740741c13.274074 28.444444 34.133333 51.2 60.681481 70.162963 32.237037-20.859259 56.888889-43.614815 72.05926-70.162963z" fill="#1296db" p-id="6219"></path></svg>