<?xml version="1.0" standalone="no"?><!DOCTYPE svg PUBLIC "-//W3C//DTD SVG 1.1//EN" "http://www.w3.org/Graphics/SVG/1.1/DTD/svg11.dtd"><svg t="1719466710515" class="icon" viewBox="0 0 1024 1024" version="1.1" xmlns="http://www.w3.org/2000/svg" p-id="1758" xmlns:xlink="http://www.w3.org/1999/xlink" width="200" height="200"><path d="M906.15873 861.460317c0 67.047619-54.857143 121.904762-121.904762 121.904762H239.746032c-67.047619 0-121.904762-54.857143-121.904762-121.904762V162.539683c0-67.047619 54.857143-121.904762 121.904762-121.904762h544.507936c67.047619 0 121.904762 54.857143 121.904762 121.904762v698.920634z" fill="#F0F0FF" p-id="1759"></path><path d="M885.84127 861.460317c0 56.015238-45.572063 101.587302-101.587302 101.587302H239.746032c-56.015238 0-101.587302-45.572063-101.587302-101.587302V162.539683c0-56.015238 45.572063-101.587302 101.587302-101.587302h544.507936c56.015238 0 101.587302 45.572063 101.587302 101.587302v698.920634z m40.63492-698.920634c0-78.421333-63.800889-142.222222-142.222222-142.222223H239.746032C161.324698 20.31746 97.52381 84.118349 97.52381 162.539683v698.920634c0 78.421333 63.800889 142.222222 142.222222 142.222223h544.507936c78.421333 0 142.222222-63.800889 142.222222-142.222223V162.539683z" fill="#6E6E96" p-id="1760"></path><path d="M117.84127 321.015873h788.31746v40.634921H117.84127zM117.84127 646.095238h788.31746v40.634921H117.84127zM238.730159 485.587302h154.412698v40.63492h-154.412698z" fill="#6E6E96" p-id="1761"></path><path d="M295.619048 428.698413h40.63492v154.412698h-40.63492zM664.815746 445.070222l109.186032 109.186032-28.728889 28.728889-109.186032-109.186032z" fill="#6E6E96" p-id="1762"></path><path d="M773.973333 473.819429l-109.186031 109.186031-28.728889-28.728889 109.186031-109.186031zM238.730159 800.507937h154.412698v40.63492h-154.412698z" fill="#6E6E96" p-id="1763"></path><path d="M512 666.412698v316.952381h272.253968c67.047619 0 121.904762-54.857143 121.904762-121.904762v-195.047619h-394.15873z" fill="#FF8C9D" p-id="1764"></path><path d="M491.68254 666.412698v316.952381a20.31746 20.31746 0 0 0 20.31746 20.317461h272.253968c78.421333 0 142.222222-63.800889 142.222222-142.222223v-195.047619a20.31746 20.31746 0 0 0-20.31746-20.31746h-394.15873a20.31746 20.31746 0 0 0-20.31746 20.31746z m394.15873 0v195.047619c0 56.015238-45.572063 101.587302-101.587302 101.587302h-272.253968a20.31746 20.31746 0 0 1 20.31746 20.31746v-316.952381a20.31746 20.31746 0 0 1-20.31746 20.317461h394.15873a20.31746 20.31746 0 0 1-20.31746-20.317461z" fill="#6E6E96" p-id="1765"></path><path d="M632.888889 763.936508h154.412698v40.634921h-154.412698zM632.888889 845.206349h154.412698v40.634921h-154.412698z" fill="#6E6E96" p-id="1766"></path><path d="M784.253968 40.634921H239.746032c-67.047619 0-121.904762 54.857143-121.904762 121.904762v172.698412h788.31746V162.539683c0-67.047619-54.857143-121.904762-121.904762-121.904762z" fill="#A3DDFF" p-id="1767"></path><path d="M784.253968 20.31746H239.746032C161.324698 20.31746 97.52381 84.118349 97.52381 162.539683v172.698412a20.31746 20.31746 0 0 0 20.31746 20.317461h788.31746a20.31746 20.31746 0 0 0 20.31746-20.317461V162.539683c0-78.421333-63.800889-142.222222-142.222222-142.222223z m101.587302 142.222223v172.698412a20.31746 20.31746 0 0 1 20.31746-20.31746H117.84127a20.31746 20.31746 0 0 1 20.31746 20.31746V162.539683c0-56.015238 45.572063-101.587302 101.587302-101.587302h544.507936c56.015238 0 101.587302 45.572063 101.587302 101.587302z" fill="#6E6E96" p-id="1768"></path><path d="M682.666667 113.777778h77.206349v38.603174h-77.206349z" fill="#FFFFFF" opacity=".62" p-id="1769"></path><path d="M784.253968 36.571429H239.746032c-34.551873 0-65.840762 14.592-88.080254 37.888C128.369778 96.698921 113.777778 127.98781 113.777778 162.539683v172.698412h4.063492V857.396825c0 67.047619 54.857143 121.904762 121.904762 121.904762h544.507936c67.047619 0 121.904762-54.857143 121.904762-121.904762V158.47619c0-67.047619-54.857143-121.904762-121.904762-121.904761z m49.741207 566.857142H138.15873V646.095238h695.836445v144.123937c0 60.566349-49.550222 110.124698-110.124699 110.124698H232.025397c-60.566349 0-110.120635-49.550222-110.120635-110.124698V335.238095h40.634921V235.68254c0-95.492063 54.857143-121.904762 121.904761-121.904762h501.84127c32.507937 0 47.70946 29.049905 47.709461 45.104762v444.546031z" fill="#6E6E96" opacity=".15" p-id="1770"></path><path d="M138.15873 361.650794h695.836445v41.313523H138.15873zM138.15873 686.730159h695.836445v41.313524H138.15873z" fill="#FFFFFF" opacity=".46" p-id="1771"></path><path d="M491.68254 341.333333h40.63492v642.031746h-40.63492z" fill="#6E6E96" p-id="1772"></path><path d="M558.730159 113.777778h52.825397v38.603174h-52.825397z" fill="#FFFFFF" opacity=".38" p-id="1773"></path></svg>